<svg width="64" height="64" viewBox="0 0 64 64" fill="none" xmlns="http://www.w3.org/2000/svg">
  <path d="M57.4933 28.64L53.8667 24.4267C53.1733 23.6267 52.6133 22.1333 52.6133 21.0667V16.5333C52.6133 13.7067 50.2933 11.3867 47.4667 11.3867H42.9333C41.8933 11.3867 40.3733 10.8267 39.5733 10.1333L35.36 6.50666C33.52 4.93333 30.5067 4.93333 28.64 6.50666L24.4533 10.16C23.6533 10.8267 22.1333 11.3867 21.0933 11.3867H16.48C13.6533 11.3867 11.3333 13.7067 11.3333 16.5333V21.0933C11.3333 22.1333 10.7733 23.6267 10.1067 24.4267L6.50668 28.6667C4.96001 30.5067 4.96001 33.4933 6.50668 35.3333L10.1067 39.5733C10.7733 40.3733 11.3333 41.8667 11.3333 42.9067V47.4667C11.3333 50.2933 13.6533 52.6133 16.48 52.6133H21.0933C22.1333 52.6133 23.6533 53.1733 24.4533 53.8667L28.6667 57.4933C30.5067 59.0667 33.52 59.0667 35.3867 57.4933L39.6 53.8667C40.4 53.1733 41.8933 52.6133 42.96 52.6133H47.4933C50.32 52.6133 52.64 50.2933 52.64 47.4667V42.9333C52.64 41.8933 53.2 40.3733 53.8933 39.5733L57.52 35.36C59.0667 33.52 59.0667 30.48 57.4933 28.64ZM44 42C44.4142 42.4142 44.4142 43.5858 44 44C43.5858 44.4142 42.4142 44.4142 42 44L32 34L22 44C21.5858 44.4142 20.4142 44.4142 20 44C19.5858 43.5858 19.5858 42.4142 20 42L30 32L20 22C19.5858 21.5858 19.5858 20.4142 20 20C20.4142 19.5858 21.5858 19.5858 22 20L32 30L42 20C42.4142 19.5858 43.5858 19.5858 44 20C44.4142 20.4142 44.4142 21.5858 44 22L34 32L44 42Z" fill="#a82525"/>
</svg>
