<svg viewBox="0 0 16 16" xmlns="http://www.w3.org/2000/svg" xmlns:xlink="http://www.w3.org/1999/xlink" width="16.000000" height="16.000000" fill="none">
	<rect id="socials" width="16.000000" height="16.000000" x="0.000000" y="0.000000" fill="rgb(255,255,255)" fill-opacity="0" />
	<g id="Group">
		<path id="path66_17_" d="M0.92665 6.30225L0.0298997 9.0575C-0.051319 9.30768 0.0363997 9.58384 0.250837 9.73981L7.99996 15.3705L5.51977 10.4999L0.92665 6.30225Z" fill="rgb(255,161,0)" fill-rule="nonzero" />
		<path id="path66_6_" d="M15.0733 6.30225L15.9701 9.0575C16.0513 9.30768 15.9636 9.58384 15.7491 9.73981L8 15.3705L10.7254 9.59381L15.0733 6.30225Z" fill="rgb(255,161,0)" fill-rule="nonzero" />
		<path id="path58_18_" d="M8.00059 15.3701L8.00056 9.78884L5.05362 6.30181L2.99206 5.27612L0.927246 6.30181L8.00059 15.3701Z" fill="rgb(255,109,24)" fill-rule="nonzero" />
		<path id="path58_17_" d="M8 15.3701L8.00003 9.45128L10.947 6.30181L13.1772 5.27612L15.0733 6.30181L8 15.3701Z" fill="rgb(255,109,24)" fill-rule="nonzero" />
		<path id="path50_10_" d="M8.00065 15.3705L10.9476 6.30225L5.05371 6.30225L8.00065 15.3705Z" fill="rgb(252,56,25)" fill-rule="nonzero" />
		<path id="path74_3_" d="M0.927246 6.3017L5.05687 6.3017L3.27959 0.839949C3.18862 0.560512 2.79221 0.560512 2.698 0.839949L0.927246 6.3017Z" fill="rgb(252,56,25)" fill-rule="nonzero" />
		<path id="path86_3_" d="M15.074 6.3017L10.9443 6.3017L12.7184 0.839949C12.8093 0.560512 13.2057 0.560512 13.3 0.839949L15.074 6.3017Z" fill="rgb(252,56,25)" fill-rule="nonzero" />
	</g>
</svg>
