<svg viewBox="0 0 16 16" xmlns="http://www.w3.org/2000/svg" xmlns:xlink="http://www.w3.org/1999/xlink" width="16.000000" height="16.000000" fill="none">
	<rect id="socials" width="16.000000" height="16.000000" x="0.000000" y="0.000000" fill="rgb(255,255,255)" fill-opacity="0" />
	<path id="Vector" d="M15.3952 6.60871L8.86895 6.6084C8.58076 6.6084 8.34717 6.84196 8.34717 7.13015L8.34717 9.21499C8.34717 9.50312 8.58076 9.73674 8.86892 9.73674L12.5441 9.73674C12.1417 10.7811 11.3905 11.6558 10.4322 12.2116L11.9993 14.9243C14.5131 13.4705 15.9993 10.9196 15.9993 8.06402C15.9993 7.65743 15.9694 7.36677 15.9094 7.03949C15.8639 6.79084 15.648 6.60871 15.3952 6.60871Z" fill="rgb(22,126,230)" fill-rule="nonzero" />
	<path id="Vector" d="M7.99936 12.869C6.2008 12.869 4.63068 11.8863 3.78739 10.4321L1.07471 11.9957C2.45518 14.3883 5.04124 15.9994 7.99936 15.9994C9.45052 15.9994 10.8198 15.6087 11.9994 14.9278L11.9994 14.9241L10.4323 12.2113C9.71546 12.627 8.88596 12.869 7.99936 12.869Z" fill="rgb(18,179,71)" fill-rule="nonzero" />
	<path id="Vector" d="M12 14.9284L12 14.9247L10.4329 12.2119C9.71609 12.6276 8.88666 12.8696 8 12.8696L8 16.0001C9.45116 16.0001 10.8205 15.6094 12 14.9284Z" fill="rgb(15,153,62)" fill-rule="nonzero" />
	<path id="Vector" d="M3.13044 7.9997C3.13044 7.11317 3.37238 6.28376 3.78803 5.56698L1.07534 4.00342C0.390687 5.17926 0 6.54482 0 7.9997C0 9.45457 0.390687 10.8201 1.07534 11.996L3.78803 10.4324C3.37238 9.71564 3.13044 8.88623 3.13044 7.9997Z" fill="rgb(255,213,0)" fill-rule="nonzero" />
	<path id="Vector" d="M7.99936 3.13044C9.17221 3.13044 10.2495 3.54719 11.091 4.24041C11.2986 4.41141 11.6003 4.39906 11.7905 4.20891L13.2676 2.73172C13.4834 2.51597 13.468 2.16281 13.2376 1.96288C11.8277 0.739781 9.99333 0 7.99936 0C5.04124 0 2.45518 1.61116 1.07471 4.00372L3.78739 5.56728C4.63068 4.11312 6.2008 3.13044 7.99936 3.13044Z" fill="rgb(255,75,38)" fill-rule="nonzero" />
	<path id="Vector" d="M11.0916 4.24041C11.2992 4.41141 11.601 4.39906 11.7911 4.20891L13.2683 2.73172C13.484 2.51597 13.4686 2.16281 13.2382 1.96288C11.8283 0.73975 9.99397 0 8 0L8 3.13044C9.17281 3.13044 10.2502 3.54719 11.0916 4.24041Z" fill="rgb(217,63,33)" fill-rule="nonzero" />
</svg>
